<?xml version="1.0" encoding="iso-8859-1"?>
<!-- Generator: Adobe Illustrator 19.0.0, SVG Export Plug-In . SVG Version: 6.00 Build 0)  -->
<svg version="1.1" id="Capa_1" xmlns="http://www.w3.org/2000/svg" xmlns:xlink="http://www.w3.org/1999/xlink" x="0px" y="0px"
	 viewBox="0 0 60 60" style="enable-background:new 0 0 60 60;" xml:space="preserve">
<g>
	<g>
		<path d="M5,2h14v3v3H9v2h11h35v15h2V9V5c0-0.6-0.4-1-1-1H21V1c0-0.6-0.4-1-1-1H4C3.4,0,3,0.4,3,1v24h2V2z M55,6v2H21V6H55z"/>
		<path d="M48,30H27v-3c0-0.6-0.4-1-1-1H12c-0.6,0-1,0.4-1,1v33h2V28h12v3v3h-8v2h9h21v24h2V35v-4C49,30.4,48.6,30,48,30z M27,34v-2
			h20v2H27z"/>
		<path d="M3.3,27.3l-3,3l1.4,1.4L3,30.4V60h2V30.4l1.3,1.3l1.4-1.4l-3-3C4.3,26.9,3.7,26.9,3.3,27.3z"/>
		<path d="M59.7,30.3l-3-3c-0.4-0.4-1-0.4-1.4,0l-3,3l1.4,1.4l1.3-1.3V60h2V30.4l1.3,1.3L59.7,30.3z"/>
		<rect x="7" y="12" width="2" height="2"/>
		<rect x="11" y="12" width="2" height="2"/>
		<rect x="15" y="12" width="2" height="2"/>
		<rect x="19" y="12" width="2" height="2"/>
		<rect x="23" y="12" width="2" height="2"/>
		<rect x="27" y="12" width="2" height="2"/>
		<rect x="31" y="12" width="2" height="2"/>
		<rect x="35" y="12" width="2" height="2"/>
		<rect x="39" y="12" width="2" height="2"/>
		<rect x="43" y="12" width="2" height="2"/>
		<rect x="47" y="12" width="2" height="2"/>
		<rect x="51" y="12" width="2" height="2"/>
		<rect x="15" y="58" width="2" height="2"/>
		<rect x="19" y="58" width="2" height="2"/>
		<rect x="23" y="58" width="2" height="2"/>
		<rect x="27" y="58" width="2" height="2"/>
		<rect x="31" y="58" width="2" height="2"/>
		<rect x="35" y="58" width="2" height="2"/>
		<rect x="39" y="58" width="2" height="2"/>
		<rect x="43" y="58" width="2" height="2"/>
		<rect x="7" y="17" width="16" height="2"/>
		<rect x="7" y="21" width="42" height="2"/>
		<rect x="25" y="17" width="8" height="2"/>
	</g>
</g>
<g>
</g>
<g>
</g>
<g>
</g>
<g>
</g>
<g>
</g>
<g>
</g>
<g>
</g>
<g>
</g>
<g>
</g>
<g>
</g>
<g>
</g>
<g>
</g>
<g>
</g>
<g>
</g>
<g>
</g>
</svg>
